# xmcd CD database file
# Copyright (C) 1993-1998 Ti Kan
# 
# Track frame offsets:
#     225
#     25056
#     43631
#     63476
#     83645
#     109628
#     126244
#     148037
#     168999
#     183018
#     205493
#     226604
#     244009
#     264628
#     289657
#     308639
# 
# Disc length: 4307 seconds
# 
# Revision: 1
# Processed by: cddbd v1.4b41PL1 Copyright (c) Steve Scherf et al.
# Submitted via: DiscPlay 4.0.4
# 
DISCID=d510d010
DTITLE=Boston Dance Orchestra - Love Songs
DYEAR=1900
DGENRE=
TTITLE0=Heal The World
TTITLE1=Another Day In Paradise
TTITLE2=Sailing
TTITLE3=Bridge Over Troubled Water
TTITLE4=Brothers In Arms
TTITLE5=I Can Hear Your Heartbeat
TTITLE6=Nothing Compares To You
TTITLE7=It Must Have Been Love
TTITLE8=Daniel
TTITLE9=Justify My Love
TTITLE10=One More Night
TTITLE11=Woman In Love
TTITLE12=Samba Pa Ti
TTITLE13=While My Guitar Gently
TTITLE14=Missing You
TTITLE15=Stuck On You
EXTD=
EXTT0=
EXTT1=
EXTT2=
EXTT3=
EXTT4=
EXTT5=
EXTT6=
EXTT7=
EXTT8=
EXTT9=
EXTT10=
EXTT11=
EXTT12=
EXTT13=
EXTT14=
EXTT15=
PLAYORDER=
